<svg xmlns="http://www.w3.org/2000/svg" width="512" height="512" viewBox="0 0 512 512">
<g>
<path d="M 0.00 0.00 L 512.00 0.00 L 391.25 0.14 C319.65,0.22 274.16,0.61 279.50,1.10 C364.65,8.96 438.98,57.85 480.79,133.50 C488.12,146.77 495.37,163.59 494.61,165.57 C494.13,166.81 462.25,166.97 255.78,166.75 C44.78,166.53 17.49,166.33 17.45,165.00 C17.38,162.67 23.50,148.67 30.13,136.03 C53.19,92.05 91.99,53.25 136.07,30.10 C168.27,13.19 199.55,4.12 237.50,0.70 C237.54,0.69 237.57,0.69 237.57,0.68 C237.57,0.49 185.82,0.26 120.75,0.17 L 0.00 0.00 ZM 512.00 512.00 L 0.00 512.00 L 119.25 511.85 C183.83,511.77 235.54,511.55 235.54,511.35 C235.54,511.35 235.53,511.35 235.50,511.34 C194.88,506.51 167.47,498.39 136.07,481.90 C91.51,458.50 52.25,418.96 29.30,374.38 C23.11,362.34 18.10,351.09 17.46,347.80 C17.13,346.07 26.30,346.00 256.06,346.00 C446.55,346.00 495.00,346.25 494.99,347.25 C494.97,349.56 485.29,370.75 479.95,380.18 C438.55,453.22 367.91,500.45 285.00,510.51 C276.03,511.60 291.85,511.80 393.25,511.89 L 512.00 512.00 Z" fill="rgb(215,0,39)"/>
<path d="M 0.00 0.00 L 0.11 117.75 C0.18,185.46 0.58,233.38 1.07,230.50 C1.53,227.75 2.41,222.12 3.02,218.00 C5.99,197.81 12.71,172.49 16.77,166.25 C17.06,165.81 17.29,165.39 17.46,165.04 C18.09,166.33 47.02,166.53 255.78,166.75 C462.25,166.97 494.13,166.81 494.61,165.57 C495.37,163.59 488.12,146.77 480.79,133.50 C460.84,97.41 433.49,67.40 401.10,45.04 C433.00,67.02 459.83,96.30 479.76,131.50 C495.79,159.79 506.79,194.59 510.51,228.75 C510.89,232.19 511.38,235.00 511.60,235.00 C511.82,235.00 512.00,182.12 512.00,117.50 L 512.00 512.00 L 511.89 394.25 C511.83,329.49 511.43,278.52 511.01,281.00 C510.59,283.48 509.69,289.33 509.01,294.00 C507.72,302.97 507.04,306.47 504.55,317.00 C492.64,367.38 465.42,411.71 428.16,445.37 C448.37,426.93 465.85,405.05 479.95,380.18 C485.29,370.75 494.97,349.56 494.99,347.25 C495.00,346.25 446.55,346.00 256.06,346.00 C44.64,346.00 20.00,346.06 17.67,347.42 C17.53,347.01 17.22,346.41 16.81,345.75 C12.73,339.31 5.79,313.32 3.00,294.00 C2.40,289.88 1.53,284.25 1.07,281.50 C0.58,278.62 0.18,326.54 0.11,394.25 L 0.00 512.00 ZM 289.50 2.22 C286.18,1.78 282.85,1.41 279.50,1.10 C276.31,0.81 291.25,0.55 319.05,0.37 C292.43,0.55 278.93,0.82 281.50,1.14 C284.26,1.49 286.92,1.85 289.50,2.22 ZM 17.61 163.98 C17.11,163.51 21.22,153.98 26.05,144.11 C21.80,152.83 18.36,160.87 17.61,163.98 ZM 167.63 496.11 C187.80,503.57 208.79,508.16 235.50,511.34 C208.54,508.13 187.81,503.61 167.63,496.11 ZM 235.83 0.62 C236.97,0.64 237.57,0.66 237.57,0.68 C237.57,0.69 237.54,0.69 237.50,0.70 C235.10,0.91 232.73,1.15 230.39,1.41 C233.12,1.05 235.14,0.75 235.83,0.62 ZM 70.69 432.08 C54.81,415.41 41.14,396.72 30.67,377.00 C41.16,396.72 54.82,415.41 70.69,432.08 ZM 17.57 348.29 C17.90,349.58 18.68,351.68 19.79,354.33 C18.49,351.28 17.65,349.05 17.57,348.29 Z" fill="rgb(254,217,68)"/>
<path d="M 0.11 394.25 C0.18,326.54 0.58,278.62 1.07,281.50 C1.53,284.25 2.40,289.88 3.00,294.00 C5.79,313.32 12.73,339.31 16.81,345.75 C17.59,346.99 17.97,348.00 17.65,348.00 C16.70,348.00 23.72,363.74 30.13,375.97 C53.43,420.42 93.02,459.72 137.62,482.70 C168.97,498.85 195.30,506.56 235.50,511.34 C237.15,511.54 184.84,511.77 119.25,511.85 L 0.00 512.00 L 0.11 394.25 ZM 285.00 510.51 C392.12,497.51 480.24,419.84 504.55,317.00 C507.04,306.47 507.72,302.97 509.01,294.00 C509.69,289.33 510.59,283.48 511.01,281.00 C511.43,278.52 511.83,329.49 511.89,394.25 L 512.00 512.00 L 393.25 511.89 C291.85,511.80 276.03,511.60 285.00,510.51 ZM 0.11 117.75 L 0.00 0.00 L 118.75 0.12 C184.06,0.18 236.82,0.39 236.00,0.59 C235.18,0.78 228.88,1.64 222.00,2.50 C193.16,6.09 163.88,15.49 136.07,30.10 C91.99,53.25 53.19,92.05 30.13,136.03 C23.72,148.26 16.70,164.00 17.65,164.00 C17.97,164.00 17.57,165.01 16.77,166.25 C12.71,172.49 5.99,197.81 3.02,218.00 C2.41,222.12 1.53,227.75 1.07,230.50 C0.58,233.38 0.18,185.46 0.11,117.75 ZM 510.51 228.75 C506.79,194.59 495.79,159.79 479.76,131.50 C444.53,69.30 387.79,25.57 319.50,7.99 C308.98,5.28 296.61,3.05 281.50,1.14 C277.13,0.59 319.18,0.21 393.25,0.13 L 512.00 0.00 L 512.00 117.50 C512.00,182.12 511.82,235.00 511.60,235.00 C511.38,235.00 510.89,232.19 510.51,228.75 Z" fill="rgb(254,253,253)"/>
</g>
</svg>