<svg xmlns="http://www.w3.org/2000/svg" width="512" height="512" viewBox="0 0 512 512">
<g>
<path d="M 330.00 501.13 C326.43,502.16 323.39,503.00 323.25,503.00 C323.11,503.00 323.00,473.19 323.00,436.75 L 323.00 370.51 L 367.00 414.50 C391.20,438.70 411.00,458.83 411.00,459.24 C411.00,460.23 398.05,469.25 387.24,475.78 C370.59,485.83 347.33,496.13 330.00,501.13 ZM 502.38 186.25 L 503.04 189.00 L 370.51 189.00 L 414.50 145.00 C438.70,120.80 458.94,101.15 459.49,101.33 C461.04,101.85 474.94,122.85 480.70,133.38 C489.08,148.69 499.41,173.89 502.38,186.25 ZM 97.50 145.00 L 141.49 189.00 L 8.96 189.00 L 9.62 186.25 C12.49,174.33 22.41,150.21 31.33,133.50 C36.64,123.55 50.93,101.84 52.50,101.32 C53.05,101.14 73.30,120.80 97.50,145.00 ZM 97.50 367.00 C73.30,391.20 53.22,411.00 52.88,411.00 C51.93,411.00 50.71,409.36 42.43,396.91 C30.10,378.38 13.75,342.92 9.62,325.75 L 8.96 323.00 L 141.49 323.00 ZM 410.69 52.50 C410.86,53.05 391.20,73.30 367.00,97.50 L 323.00 141.49 L 323.00 75.25 C323.00,37.96 323.38,9.00 323.88,9.00 C325.91,9.00 351.63,18.28 360.20,22.11 C377.25,29.73 409.70,49.26 410.69,52.50 ZM 468.00 399.24 C463.88,405.36 460.05,410.51 459.50,410.68 C458.95,410.86 438.70,391.20 414.50,367.00 L 370.51 323.00 L 436.75 323.00 C473.19,323.00 503.00,323.23 503.00,323.52 C503.00,323.80 501.37,329.09 499.37,335.27 C492.18,357.51 481.65,379.00 468.00,399.24 ZM 189.00 436.75 C189.00,473.19 188.66,502.99 188.25,502.99 C184.46,502.92 157.07,492.25 143.50,485.55 C127.90,477.85 102.04,461.88 101.31,459.50 C101.14,458.95 120.80,438.70 145.00,414.50 L 189.00 370.51 ZM 188.60 9.27 C188.83,9.49 188.90,39.23 188.76,75.34 L 188.50 141.01 L 144.50 96.95 L 100.50 52.89 L 103.50 50.41 C110.12,44.92 131.03,32.41 145.07,25.53 C158.22,19.09 187.49,8.15 188.60,9.27 Z" fill="rgb(3,82,179)"/>
<path d="M 0.00 0.00 L 512.00 0.00 L 389.75 0.17 C323.86,0.26 271.43,0.47 271.43,0.65 C271.43,0.65 271.46,0.66 271.50,0.66 C273.70,0.84 278.76,1.25 282.75,1.58 L 290.00 2.17 L 290.00 223.00 L 509.75 223.00 L 510.38 226.12 C510.72,227.84 511.00,230.54 511.00,232.12 C511.00,233.71 511.23,235.00 511.50,235.00 C511.77,235.00 512.00,182.12 512.00,117.50 L 512.00 512.00 L 0.00 512.00 ZM 0.00 0.00 L 0.15 121.75 C0.23,187.87 0.43,241.03 0.59,241.03 C0.60,241.03 0.60,241.02 0.60,241.00 C0.77,239.62 1.19,235.01 1.54,230.75 L 2.17 223.01 L 112.33 222.75 L 222.50 222.50 L 222.75 112.33 L 223.01 2.17 L 230.25 1.58 C234.24,1.25 239.07,0.84 241.00,0.65 C241.03,0.65 241.05,0.65 241.05,0.64 C241.05,0.46 188.31,0.25 122.25,0.16 ZM 0.14 390.25 L 0.00 512.00 L 118.25 511.92 C182.95,511.88 235.50,511.69 235.50,511.50 L 235.50 511.50 C234.95,511.31 231.91,510.86 228.75,510.50 L 223.00 509.86 L 223.00 290.00 L 112.97 290.00 C24.53,290.00 2.84,289.75 2.45,288.72 C2.18,288.02 1.58,283.18 1.12,277.97 C0.61,272.25 0.22,316.64 0.14,390.25 ZM 512.00 512.00 L 511.92 394.25 C511.88,329.82 511.69,277.50 511.50,277.50 C511.50,277.50 511.50,277.50 511.50,277.50 C511.31,278.05 510.86,281.09 510.50,284.25 L 509.86 290.00 L 290.00 290.00 L 290.00 509.88 L 285.75 510.43 C283.41,510.73 280.38,511.14 279.00,511.35 C278.98,511.35 278.97,511.36 278.97,511.36 C278.97,511.56 330.33,511.79 394.25,511.86 L 512.00 512.00 ZM 380.75 131.75 C349.81,162.69 324.16,188.00 323.75,188.00 C323.34,188.00 323.00,181.14 323.00,172.75 L 323.00 157.49 L 371.91 108.59 L 420.83 59.68 L 428.91 66.98 C433.36,71.00 437.00,74.56 437.00,74.90 C437.00,75.23 411.69,100.82 380.75,131.75 ZM 185.98 189.35 C182.57,190.04 162.93,190.01 159.45,189.32 C158.33,189.10 135.49,167.00 108.71,140.21 L 60.01 91.50 L 67.09 83.75 C70.98,79.49 74.69,76.00 75.33,76.00 C75.98,76.00 101.86,101.36 132.85,132.35 C189.03,188.53 189.19,188.71 185.98,189.35 ZM 445.07 428.93 C441.06,433.37 437.72,437.00 437.64,437.00 C437.56,437.00 411.85,411.35 380.50,380.00 L 323.51 323.00 L 354.51 323.00 L 403.43 371.93 L 452.34 420.85 ZM 189.95 338.85 L 189.81 353.69 L 140.61 402.89 L 91.41 452.08 L 83.45 444.61 L 75.50 437.14 L 132.00 380.57 C163.07,349.46 188.85,324.00 189.29,324.00 C189.72,324.00 190.02,330.68 189.95,338.85 Z" fill="rgb(214,1,39)"/>
<path d="M 0.00 0.00 L 122.25 0.16 C177.05,0.23 222.68,0.39 236.65,0.55 C236.95,0.65 237.94,0.71 239.50,0.71 C239.83,0.71 240.14,0.71 240.42,0.71 C238.22,0.91 233.88,1.28 230.25,1.58 L 223.01 2.17 L 222.75 112.33 L 222.50 222.50 L 112.33 222.75 L 2.17 223.01 L 1.54 230.75 C1.32,233.44 1.07,236.27 0.87,238.34 C0.85,237.76 0.79,237.20 0.71,236.75 C0.63,236.37 0.56,236.20 0.50,236.22 C0.36,221.74 0.22,176.13 0.15,121.75 ZM 0.14 390.25 C0.22,316.64 0.61,272.25 1.12,277.97 C1.58,283.18 2.18,288.02 2.45,288.72 C2.84,289.75 24.53,290.00 112.97,290.00 L 223.00 290.00 L 223.00 509.86 L 228.75 510.50 C231.91,510.86 234.95,511.31 235.50,511.50 L 235.50 511.50 C235.50,511.69 182.95,511.88 118.25,511.92 L 0.00 512.00 ZM 512.00 0.00 L 512.00 117.50 C512.00,182.12 511.77,235.00 511.50,235.00 C511.23,235.00 511.00,233.71 511.00,232.12 C511.00,230.54 510.72,227.84 510.38,226.12 L 509.75 223.00 L 290.00 223.00 L 290.00 2.17 L 282.75 1.58 C279.12,1.28 274.60,0.91 272.16,0.71 C272.27,0.71 272.38,0.71 272.50,0.71 C274.09,0.72 275.18,0.66 275.57,0.56 C289.18,0.41 334.78,0.24 389.75,0.17 ZM 511.92 394.25 L 512.00 512.00 L 394.25 511.86 C330.33,511.79 278.97,511.56 278.97,511.36 C278.97,511.36 278.98,511.35 279.00,511.35 C280.38,511.14 283.41,510.73 285.75,510.43 L 290.00 509.88 L 290.00 290.00 L 509.86 290.00 L 510.50 284.25 C510.86,281.09 511.31,278.05 511.50,277.50 C511.50,277.50 511.50,277.50 511.50,277.50 C511.69,277.50 511.88,329.82 511.92,394.25 ZM 330.00 501.13 C347.33,496.13 370.59,485.83 387.24,475.78 C398.05,469.25 411.00,460.23 411.00,459.24 C411.00,458.83 391.20,438.70 367.00,414.50 L 323.00 370.51 L 323.00 436.75 C323.00,473.19 323.11,503.00 323.25,503.00 C323.39,503.00 326.43,502.16 330.00,501.13 ZM 502.38 186.25 C499.41,173.89 489.08,148.69 480.70,133.38 C474.94,122.85 461.04,101.85 459.49,101.33 C458.94,101.15 438.70,120.80 414.50,145.00 L 370.51 189.00 L 503.04 189.00 ZM 97.50 145.00 C73.30,120.80 53.05,101.14 52.50,101.32 C50.93,101.84 36.64,123.55 31.33,133.50 C22.41,150.21 12.49,174.33 9.62,186.25 L 8.96 189.00 L 141.49 189.00 ZM 97.50 367.00 L 141.49 323.00 L 8.96 323.00 L 9.62 325.75 C13.75,342.92 30.10,378.38 42.43,396.91 C50.71,409.36 51.93,411.00 52.88,411.00 C53.22,411.00 73.30,391.20 97.50,367.00 ZM 410.69 52.50 C409.70,49.26 377.25,29.73 360.20,22.11 C351.63,18.28 325.91,9.00 323.88,9.00 C323.38,9.00 323.00,37.96 323.00,75.25 L 323.00 141.49 L 367.00 97.50 C391.20,73.30 410.86,53.05 410.69,52.50 ZM 468.00 399.24 C481.65,379.00 492.18,357.51 499.37,335.27 C501.37,329.09 503.00,323.80 503.00,323.52 C503.00,323.23 473.19,323.00 436.75,323.00 L 370.51 323.00 L 414.50 367.00 C438.70,391.20 458.95,410.86 459.50,410.68 C460.05,410.51 463.88,405.36 468.00,399.24 ZM 189.00 436.75 L 189.00 370.51 L 145.00 414.50 C120.80,438.70 101.14,458.95 101.31,459.50 C102.04,461.88 127.90,477.85 143.50,485.55 C157.07,492.25 184.46,502.92 188.25,502.99 C188.66,502.99 189.00,473.19 189.00,436.75 ZM 188.60 9.27 C187.49,8.15 158.22,19.09 145.07,25.53 C131.03,32.41 110.12,44.92 103.50,50.41 L 100.50 52.89 L 144.50 96.95 L 188.50 141.01 L 188.76 75.34 C188.90,39.23 188.83,9.49 188.60,9.27 ZM 380.75 131.75 C411.69,100.82 437.00,75.23 437.00,74.90 C437.00,74.56 433.36,71.00 428.91,66.98 L 420.83 59.68 L 371.91 108.59 L 323.00 157.49 L 323.00 172.75 C323.00,181.14 323.34,188.00 323.75,188.00 C324.16,188.00 349.81,162.69 380.75,131.75 ZM 185.98 189.35 C189.19,188.71 189.03,188.53 132.85,132.35 C101.86,101.36 75.98,76.00 75.33,76.00 C74.69,76.00 70.98,79.49 67.09,83.75 L 60.01 91.50 L 108.71 140.21 C135.49,167.00 158.33,189.10 159.45,189.32 C162.93,190.01 182.57,190.04 185.98,189.35 ZM 445.07 428.93 L 452.34 420.85 L 403.43 371.93 L 354.51 323.00 L 323.51 323.00 L 380.50 380.00 C411.85,411.35 437.56,437.00 437.64,437.00 C437.72,437.00 441.06,433.37 445.07,428.93 ZM 189.95 338.85 C190.02,330.68 189.72,324.00 189.29,324.00 C188.85,324.00 163.07,349.46 132.00,380.57 L 75.50 437.14 L 83.45 444.61 L 91.41 452.08 L 140.61 402.89 L 189.81 353.69 Z" fill="rgb(244,245,245)"/>
<path d="M 0.27 273.00 C0.27,270.52 0.47,269.51 0.71,270.75 C0.94,271.99 0.94,274.01 0.71,275.25 C0.47,276.49 0.27,275.48 0.27,273.00 ZM 0.27 239.00 C0.27,236.52 0.47,235.51 0.71,236.75 C0.94,237.99 0.94,240.01 0.71,241.25 C0.47,242.49 0.27,241.48 0.27,239.00 ZM 237.26 0.28 C238.78,0.05 241.03,0.06 242.26,0.30 C243.49,0.53 242.25,0.72 239.50,0.71 C236.75,0.71 235.74,0.51 237.26,0.28 ZM 270.26 0.28 C271.78,0.05 274.03,0.06 275.26,0.30 C276.49,0.53 275.25,0.72 272.50,0.71 C269.75,0.71 268.74,0.51 270.26,0.28 Z" fill="rgb(249,137,159)"/>
</g>
</svg>